<svg width="149" height="46" viewBox="0 0 149 46" fill="none" xmlns="http://www.w3.org/2000/svg">
<g opacity="0.15">
<path fill-rule="evenodd" clip-rule="evenodd" d="M113.927 15.8568C116.791 19.2176 116.153 27.9021 112.938 30.3059C111.149 25.3396 111.778 20.6262 113.927 15.8568ZM101.028 35.7074C98.3941 30.2327 99.5565 14.6136 101.711 10.6206C105.95 16.1638 105.631 29.4172 101.028 35.7074ZM27.2048 13.3608C30.7764 13.3532 33.2893 15.8767 33.2918 19.4686C33.2943 23.0062 30.6626 25.6609 27.1924 25.6191C23.7148 25.5801 21.2488 23.0595 21.2266 19.5313C21.2018 15.872 23.6307 13.3684 27.2048 13.3608V13.3608ZM87.5062 5.98611C94.5974 15.3559 93.0886 33.3084 86.5688 40.0625C86.8829 28.7119 87.1896 17.5287 87.5062 5.98611ZM46.7619 3.72495C55.4015 16.0298 53.0097 34.0184 45.8467 41.5395C47.7092 28.7338 47.2467 16.237 46.7619 3.72495ZM71.6269 42.1773C73.9593 29.306 74.0979 16.563 74.0657 3.42839C81.1297 13.1223 80.457 33.7751 71.6269 42.1773ZM59.1586 42.5394C60.378 29.4172 62.5892 16.312 60.0663 3.09951C68.9557 12.8276 67.7487 31.2982 59.1586 42.5394ZM138.53 23.8018C142.636 21.322 145.745 18.1027 147.82 14.0053C150.553 8.59611 148.463 5.12212 142.336 4.59178C139.057 4.30663 135.997 5.02708 133.254 6.6695C130.734 8.176 128.414 10.0104 126.022 11.7232C125.384 12.1804 124.812 12.7231 124.196 13.2145C121.718 15.1762 119.133 15.4462 116.193 14.0879C110.838 11.6158 105.5 9.04665 99.9646 7.02022C88.2605 2.7374 76.0568 0.688178 63.5934 0.126447C44.6991 -0.730043 26.6334 2.77826 9.35179 10.2338C6.62364 11.4114 4.14533 13.166 1.59526 14.7257C0.981855 15.0983 0.492123 15.7066 0.049385 16.2807C-1.43713 18.1883 -1.38027 20.1567 0.450044 21.7478C14.442 33.9291 29.9527 43.18 48.9732 45.2549C67.4098 47.2623 85.3716 45.3262 102.53 38.0703C107.234 36.0848 111.748 33.6515 116.341 31.4075C117.8 30.6946 119.252 29.9627 120.664 29.1691C121.523 28.6853 121.909 28.9429 122.413 29.7099C123.811 31.8238 125.169 33.9947 126.826 35.9023C130.115 39.688 134.345 41.1384 139.341 39.9969C142.878 39.1918 144.441 36.7995 143.855 33.2989C143.224 29.554 141.174 26.5629 138.53 23.8018" fill="#FAB751"/>
<path fill-rule="evenodd" clip-rule="evenodd" d="M59.1588 42.5395C67.7489 31.2983 68.9559 12.8277 60.0665 3.09961C62.5894 16.3121 60.3782 29.4173 59.1588 42.5395Z" fill="white"/>
<path fill-rule="evenodd" clip-rule="evenodd" d="M71.6269 42.1773C80.4569 33.7752 81.1297 13.1224 74.0657 3.42847C74.0978 16.5631 73.9593 29.3061 71.6269 42.1773Z" fill="white"/>
<path fill-rule="evenodd" clip-rule="evenodd" d="M46.762 3.7251C47.2468 16.2372 47.7093 28.734 45.8468 41.5398C53.0098 34.0187 55.4015 16.03 46.762 3.7251Z" fill="white"/>
<path fill-rule="evenodd" clip-rule="evenodd" d="M87.5061 5.98633C87.1895 17.5288 86.8828 28.712 86.5687 40.0625C93.0885 33.3085 94.5973 15.356 87.5061 5.98633Z" fill="white"/>
<path fill-rule="evenodd" clip-rule="evenodd" d="M27.2049 13.3606C23.6309 13.3682 21.202 15.8718 21.2267 19.5311C21.249 23.0592 23.715 25.5799 27.1926 25.6189C30.6627 25.6607 33.2944 23.006 33.2919 19.4684C33.2895 15.8765 30.7765 13.353 27.2049 13.3606Z" fill="white"/>
<path fill-rule="evenodd" clip-rule="evenodd" d="M101.028 35.7076C105.631 29.4173 105.95 16.164 101.711 10.6208C99.5567 14.6138 98.3942 30.2329 101.028 35.7076Z" fill="white"/>
<path fill-rule="evenodd" clip-rule="evenodd" d="M113.927 15.8564C111.775 20.6259 111.149 25.3393 112.938 30.3056C116.153 27.9018 116.791 19.2173 113.927 15.8564Z" fill="white"/>
</g>
</svg>
